<svg id="Слой_1" data-name="Слой 1" xmlns="http://www.w3.org/2000/svg" viewBox="0 0 22 60">
    <defs>
        <style>.cls-1{fill:#424242;}</style>
    </defs>
    <title>mac_pro</title>
    <g id="Light">
        <g id="Mac">
            <path id="Mac_Pro" data-name="Mac Pro" class="cls-1"
                  d="M18.86,24H3.14A3,3,0,0,0,0,27.09V53.91A3,3,0,0,0,3.14,57H18.86A3,3,0,0,0,22,53.91V27.09A3,3,0,0,0,18.86,24ZM11,28.21a.77.77,0,0,1,.14-.21.75.75,0,0,1,.2-.15.58.58,0,0,1,.24-.06v.06a.58.58,0,0,1-.05.24.76.76,0,0,1-.14.21.69.69,0,0,1-.19.15.46.46,0,0,1-.22.06s0,0,0,0v0A.54.54,0,0,1,11,28.21Zm-1.27.88a.88.88,0,0,1,.17-.29.77.77,0,0,1,.25-.19.73.73,0,0,1,.31-.07.82.82,0,0,1,.29.07.79.79,0,0,0,.23.07l.08,0,.17-.06.17-.05h.14a.77.77,0,0,1,.35.08.69.69,0,0,1,.26.22.68.68,0,0,0-.26.25.69.69,0,0,0-.08.34.66.66,0,0,0,.11.37.7.7,0,0,0,.31.25,1.5,1.5,0,0,1-.1.23l-.12.2-.12.16-.1.1-.13.09a.32.32,0,0,1-.14,0l-.11,0-.14,0-.14,0-.13,0-.14,0-.15,0-.14,0-.1,0-.11,0-.11-.06-.12-.12L10,30.48a1.56,1.56,0,0,1-.14-.23A2,2,0,0,1,9.8,30a1.89,1.89,0,0,1-.07-.27,1.59,1.59,0,0,1,0-.26A1.06,1.06,0,0,1,9.77,29.09Zm4.89,22.76a1.41,1.41,0,0,1-1.57,1.55H8.9a1.41,1.41,0,0,1-1.57-1.55V36.38A1.41,1.41,0,0,1,8.9,34.83H13.1a1.41,1.41,0,0,1,1.57,1.55ZM13.1,35.34H8.9a.94.94,0,0,0-1,1V51.84a.94.94,0,0,0,1,1H13.1a.94.94,0,0,0,1-1V36.38A.94.94,0,0,0,13.1,35.34Z"/>
        </g>
    </g>
</svg>