<svg id="Слой_1" data-name="Слой 1" xmlns="http://www.w3.org/2000/svg" viewBox="0 0 46 60">
    <defs>
        <style>.cls-1{fill:#424242;}</style>
    </defs>
    <title>macbook</title>
    <g id="Dark">
        <g id="Mac">
            <path id="MacBook" class="cls-1"
                  d="M42,55V34.5A1.35,1.35,0,0,0,40.5,33H5.5A1.34,1.34,0,0,0,4,34.5V55H0c.05.09.13.32.21.32a11.53,11.53,0,0,0,4.64,1.42C7.42,56.92,11,57,11,57H34s4.64-.08,7.21-.25a11.23,11.23,0,0,0,4.61-1.42c.08,0,.13-.23.19-.32ZM6,35H40V55H6Z"/>
        </g>
    </g>
</svg>