<svg id="Light" xmlns="http://www.w3.org/2000/svg" viewBox="0 0 28 60">
    <defs>
        <style>.cls-1{fill:#424242;}</style>
    </defs>
    <title>ipad_2017</title>
    <path id="iPad_Air_2" data-name="iPad Air 2" class="cls-1"
          d="M26.74,17.38H1.26A1.24,1.24,0,0,0,0,18.6s0,0,0,0v37.5a1.24,1.24,0,0,0,1.23,1.25H26.74A1.24,1.24,0,0,0,28,56.15s0,0,0,0V18.63a1.24,1.24,0,0,0-1.23-1.25ZM14,18.88a.5.5,0,1,1-.5.5A.5.5,0,0,1,14,18.88Zm0,37.5a1,1,0,1,1,1-1A1,1,0,0,1,14,56.38Zm12-3H2v-32H26Z"/>
</svg>