<svg id="Light" xmlns="http://www.w3.org/2000/svg" viewBox="0 0 34 60">
    <defs>
        <style>.cls-1{fill:#424242;}</style>
    </defs>
    <title>ipad_pro12.9</title>
    <path id="iPad_Air_2" data-name="iPad Air 2" class="cls-1"
          d="M32.47,9H1.53A1.5,1.5,0,0,0,0,10.47s0,0,0,0v45A1.5,1.5,0,0,0,1.5,57h31A1.5,1.5,0,0,0,34,55.53s0,0,0,0v-45A1.5,1.5,0,0,0,32.51,9ZM17,10.8a.6.6,0,1,1-.61.6A.6.6,0,0,1,17,10.8Zm0,45a1.2,1.2,0,1,1,1.21-1.2A1.21,1.21,0,0,1,17,55.8Zm14.57-3.6H2.43V13.8H31.57Z"/>
</svg>