<svg id="Light" xmlns="http://www.w3.org/2000/svg" viewBox="0 0 30 60">
    <defs>
        <style>.cls-1{fill:#424242;}</style>
    </defs>
    <title>ipad_3</title>
    <path id="iPad_Air_2" data-name="iPad Air 2" class="cls-1"
          d="M28.65,14H1.35A1.33,1.33,0,0,0,0,15.31s0,0,0,0V55.66A1.33,1.33,0,0,0,1.32,57H28.65A1.33,1.33,0,0,0,30,55.68s0,0,0,0V15.34A1.33,1.33,0,0,0,28.68,14ZM15,15.61a.54.54,0,1,1-.54.54A.54.54,0,0,1,15,15.61Zm0,40.31a1.07,1.07,0,1,1,1.07-1.07A1.07,1.07,0,0,1,15,55.92ZM27.86,52.7H2.14V18.3H27.86Z"/>
</svg>