<svg id="Light" xmlns="http://www.w3.org/2000/svg" viewBox="0 0 28 60">
    <defs>
        <style>.cls-1{fill:#424242;}</style>
    </defs>
    <title>ipad_pro9.7</title>
    <path id="iPad_Air_2" data-name="iPad Air 2" class="cls-1"
          d="M26.74,14H1.26A1.29,1.29,0,0,0,0,15.31s0,0,0,0V55.66A1.29,1.29,0,0,0,1.23,57H26.74A1.29,1.29,0,0,0,28,55.68s0,0,0,0V15.34A1.29,1.29,0,0,0,26.77,14ZM14,15.61a.54.54,0,1,1-.5.54A.52.52,0,0,1,14,15.61Zm0,40.31a1.08,1.08,0,1,1,1-1.07A1,1,0,0,1,14,55.92ZM26,52.7H2V18.3H26Z"/>
</svg>