<svg id="watch_series_2" xmlns="http://www.w3.org/2000/svg" viewBox="0 0 36 60"><defs><style>.cls-1{fill:#424242;}</style></defs><title>watch_hermes</title><path class="cls-1" d="M9.16,36c0-7.69,2.53-14.33,6.2-17.51,0-.6.05-1,.08-1.35-3.09.57-7.12,1.42-7.4,1.5C3.27,20,0,27.26,0,36c0,9,3.51,16.47,8.5,17.44.22,0,3.72.81,6.93,1.4,0-.31,0-.75-.08-1.36C11.69,50.32,9.16,43.68,9.16,36ZM35,29.07V27.32a4.37,4.37,0,0,0-2.06-3.73V22a.9.9,0,0,0-1-.91h-1.1c-.06-1.92-.13-3.89-.19-4.24a1.77,1.77,0,0,0-1.17-1.48c-1-.44-10.63-.48-11.65,0A2.1,2.1,0,0,0,16.66,17c-.05.35-.12,2.21-.18,4.06h-1a1,1,0,0,0-1.12.91v1.6a4.37,4.37,0,0,0-2.06,3.73V44.66a4.31,4.31,0,0,0,2.06,3.77V50a1.14,1.14,0,0,0,1.12,1.05h1c.06,1.86.13,3.57.19,3.92a2.1,2.1,0,0,0,1.17,1.69c1,.44,10.63.41,11.64,0a1.77,1.77,0,0,0,1.17-1.48c.05-.35.12-2.18.19-4.1h1.1a1,1,0,0,0,1-1.05V48.36A4.32,4.32,0,0,0,35,44.66V34.07h1v-5Zm-3.55-7c.28,0,.46.14.46.41v.66a3.52,3.52,0,0,0-1-.15h0c0-.32,0-.57,0-.92Zm-16,.41c0-.28.32-.41.6-.41h.43c0,.35,0,.6,0,.93a4.69,4.69,0,0,0-1,.14v-.66ZM16,50.07a.64.64,0,0,1-.6-.55v-.65a4.69,4.69,0,0,0,1,.13c0,.32,0,.73,0,1.08H16Zm15.87-.55a.51.51,0,0,1-.46.55h-.56c0-.35,0-.76,0-1.08a3.51,3.51,0,0,0,1-.17Zm2.06-4.85a3.28,3.28,0,0,1-3,3.41H16.52a3.39,3.39,0,0,1-3.18-3.41V27.32a3.25,3.25,0,0,1,3.18-3.25H30.91a3,3,0,0,1,3,3.25Z"/></svg>