<svg id="watch_series_2" xmlns="http://www.w3.org/2000/svg" viewBox="0 0 24 60"><defs><style>.cls-1{fill:#424242;}</style></defs><title>watch_edition</title><path class="cls-1" d="M23,29V27.33a4.44,4.44,0,0,0-1-2.82c-.34-.42-.74-.78-1.09-1.19a14.86,14.86,0,0,1-1.07-1.43,5.84,5.84,0,0,1-1-2.62,21,21,0,0,1-.06-2.3,2.12,2.12,0,0,0,0-.43,1.52,1.52,0,0,0-1.21-1.11A36.73,36.73,0,0,0,11.24,15a30.68,30.68,0,0,0-5.83.43A1.56,1.56,0,0,0,4.2,16.57c-.12.54.15,3.17-.83,4.76C3,21.89,1.6,24,1.6,24A4.42,4.42,0,0,0,0,27.33V44.67a4.84,4.84,0,0,0,1.33,3.41c.48.6,1.15,1.25,1.15,1.26a7.31,7.31,0,0,1,1,1.37c1,1.59.59,4.23.71,4.77a1.52,1.52,0,0,0,1.21,1.11,37.92,37.92,0,0,0,6.44.43,30.7,30.7,0,0,0,5.83-.43,1.56,1.56,0,0,0,1.21-1.14c.12-.54-.15-3.17.83-4.76C20,50.11,21.42,48,21.42,48A4.37,4.37,0,0,0,23,44.67V34h1V29ZM4.29,21.83a9.18,9.18,0,0,0,.9-4.44,5.94,5.94,0,0,1,0-.64c0-.17.12-.3.52-.42A33.19,33.19,0,0,1,11.28,16a39.27,39.27,0,0,1,6,.33c.46.14.5.28.52.4a5,5,0,0,1,0,.6,9.37,9.37,0,0,0,.91,4.5,8.91,8.91,0,0,0,.8,1.14h-16A7.48,7.48,0,0,0,4.29,21.83ZM18.76,50.16a9.18,9.18,0,0,0-.9,4.44,5.93,5.93,0,0,1,0,.63c0,.17-.12.3-.52.42a33.19,33.19,0,0,1-5.54.34,40.7,40.7,0,0,1-6.05-.33c-.46-.14-.5-.28-.52-.4a5,5,0,0,1,0-.6,9.37,9.37,0,0,0-.91-4.5A10,10,0,0,0,3.46,49H19.54A8.08,8.08,0,0,0,18.76,50.16Zm3.15-5.5A3.18,3.18,0,0,1,18.85,48H4.24A3.29,3.29,0,0,1,1,44.67V27.33a3.25,3.25,0,0,1,3.2-3.25H18.85a3.14,3.14,0,0,1,3.07,3.25Z"/></svg>