<svg id="Light" xmlns="http://www.w3.org/2000/svg" viewBox="0 0 24 60"><defs><style>.cls-1{fill:#424242;}</style></defs><title>watch_series_2</title><path id="Apple_Watch_Series_1" data-name="Apple Watch Series 1" class="cls-1" d="M24,34V29H23V27.33a4.13,4.13,0,0,0-.62-2.16c-.42-.68-1.16-1.26-1.61-1.93a9.44,9.44,0,0,1-1.37-3c-.28-1.15-.2-2.34-.44-3.5a1.83,1.83,0,0,0-1.75-1.4c-1-.13-2-.2-2.93-.26S12.19,15,11.17,15a30.73,30.73,0,0,0-5.83.43,1.56,1.56,0,0,0-1.16,1.14c-.11.54-.21,1.86-.31,2.63a7.33,7.33,0,0,1-2,4.44l-.48.51A4.37,4.37,0,0,0,0,27.33V44.67a4.14,4.14,0,0,0,1.45,3.21A5.76,5.76,0,0,1,3.8,52c.19,1.16.05,2.33.29,3.46a1.68,1.68,0,0,0,1.31,1.11,36.65,36.65,0,0,0,6.33.43,30.73,30.73,0,0,0,5.83-.43,1.57,1.57,0,0,0,1.21-1.14c.11-.54-.15-3.17.82-4.76C20,50.11,21.42,48,21.42,48s.17-.22.21-.26A4.42,4.42,0,0,0,23,44.67V34ZM21.91,44.67A3.26,3.26,0,0,1,18.78,48H4.17A3.25,3.25,0,0,1,1,44.67V27.33A3.26,3.26,0,0,1,4.17,24H18.78a3.26,3.26,0,0,1,3.13,3.33Z"/></svg>