<svg id="Слой_1" data-name="Слой 1" xmlns="http://www.w3.org/2000/svg" viewBox="0 0 42 60">
    <defs>
        <style>.cls-1{fill:#2e2e2e;}</style>
    </defs>
    <title>Gamepad</title>
    <path class="cls-1"
          d="M14,39.2A2.69,2.69,0,0,1,11.42,42h0a2.76,2.76,0,0,1-2.6-2.8,2.69,2.69,0,0,1,2.58-2.8h0A2.69,2.69,0,0,1,14,39.18ZM42,50.8c0,3-1,4.9-3.1,6a2.35,2.35,0,0,1-.8.2,2.08,2.08,0,0,1-1.2-.5l-5.4-5.1a5.23,5.23,0,0,0-4.2-1.9H14.7a5.23,5.23,0,0,0-4.2,1.9L5,56.5a1.66,1.66,0,0,1-1.2.5,2.35,2.35,0,0,1-.8-.2c-2.1-1.1-3.1-3-3.1-6C0,47,1.7,40.6,4.7,32.4c1.4-3.9,4-5.4,6.5-5.4a6,6,0,0,1,3.2.9,13.49,13.49,0,0,0,13.2,0,7.34,7.34,0,0,1,3.2-.9c2.5,0,5,1.5,6.5,5.4C40.3,40.6,42,47,42,50.8ZM15.8,39.2a4.57,4.57,0,0,0-4.4-4.7,4.71,4.71,0,0,0,0,9.4A4.57,4.57,0,0,0,15.8,39.2Zm7-4.7A1.88,1.88,0,0,0,21,32.6a1.9,1.9,0,0,0,0,3.8A1.88,1.88,0,0,0,22.8,34.5Zm6.1,4.7a1.3,1.3,0,1,0-1.3,1.4,1.35,1.35,0,0,0,1.3-1.4Zm3,3.3a1.3,1.3,0,1,0-1.3,1.4A1.42,1.42,0,0,0,31.9,42.5Zm0-6.7a1.3,1.3,0,1,0-1.3,1.4,1.35,1.35,0,0,0,1.3-1.4ZM35,39.2a1.3,1.3,0,1,0-1.3,1.4A1.35,1.35,0,0,0,35,39.2Z"/>
</svg>