<svg id="Слой_1" data-name="Слой 1" xmlns="http://www.w3.org/2000/svg" viewBox="0 0 38 60">
    <title>Segway</title>
    <path d="M11.4,56.1a7.43,7.43,0,0,1-7.9.4A7.12,7.12,0,0,1,.1,49.3a9.33,9.33,0,0,1,4.7-7.6,9.46,9.46,0,0,1,7.9,0,20.91,20.91,0,0,0-2,7.6L5.1,50.7l2.3,5.2Z"/>
    <path d="M6.1,51l10.2-2.2,5.6.4s-.5,4.9.7,6.8L7.9,55.1Z"/>
    <path d="M12,50.1a15.21,15.21,0,0,1,1.4-7.7s1.4-1.6.2-7.2L11,22.6l2.9-.3,3.7,15.1s.5,3.6-.9,6.1c0,0-1.7,3.2-1,5.8Z"/>
    <path d="M11,22.2l2.6-.4s-.8-7.2-2.2-8.3l5.7.2s1.7-.7.1-1.4c0,0-10.5-.9-16.3.6,0,0-2,1.1.2,1.5,0,0,4.9-1.1,6.6-.8,0,0,1.2-.2,1.9,2.8Z"/>
    <path d="M22.6,51.3s-.3-6.5,5.5-9.4c0,0,4.8-1.8,8.2,2a11.24,11.24,0,0,1,.7,11s-2.4,5.4-7.7,5C29.2,60,22.5,59.1,22.6,51.3Z"/>
</svg>