<svg id="Слой_1" data-name="Слой 1" xmlns="http://www.w3.org/2000/svg" viewBox="0 0 38 60">
    <defs>
        <style>.cls-1{fill:#2e2e2e;}</style>
    </defs>
    <title>Smart_home</title>
    <path class="cls-1"
          d="M37.7,35.3,32.4,30V21.4A1.59,1.59,0,0,0,31.1,20H25.6c-.6,0-.8.8-.8,1.4v.9l-5.1-5a1.4,1.4,0,0,0-.9-.3,1.22,1.22,0,0,0-.9.4L.3,35.4a.78.78,0,0,0-.2,1,1,1,0,0,0,1,.5H4.6v19c.1.6.4,1.1,1,1.1H31.1a1.3,1.3,0,0,0,1.3-1.1v-19h4.4a1.17,1.17,0,0,0,1.1-.5A.94.94,0,0,0,37.7,35.3ZM23.5,45.7a.6.6,0,0,1-.4.1.75.75,0,0,1-.7-.4,4.36,4.36,0,0,0-3.7-2.1,4.08,4.08,0,0,0-3.6,2.1.81.81,0,0,1-1.4-.8,6.05,6.05,0,0,1,5-2.8,6.09,6.09,0,0,1,5.1,2.9A.81.81,0,0,1,23.5,45.7Zm2.7-2.8a.77.77,0,0,1-1.1-.1,7.93,7.93,0,0,0-12.5.1.71.71,0,0,1-.6.3c-.2,0-.4,0-.5-.2a.71.71,0,0,1-.1-1.1,9.43,9.43,0,0,1,14.9-.1A.79.79,0,0,1,26.2,42.9Zm2.3-2.5a.76.76,0,0,1-.5.2.86.86,0,0,1-.6-.3,11,11,0,0,0-8.6-4,11.16,11.16,0,0,0-8.6,4,.78.78,0,0,1-1.2-1,12.74,12.74,0,0,1,9.8-4.6,13.1,13.1,0,0,1,9.9,4.6A.94.94,0,0,1,28.5,40.4Z"/>
</svg>