<svg id="Слой_1" data-name="Слой 1" xmlns="http://www.w3.org/2000/svg" viewBox="0 0 36 60">
    <defs>
        <style>.cls-1{fill:#2e2e2e;}</style>
    </defs>
    <title>Action_camera</title>
    <path class="cls-1"
          d="M32.4,31.6H14.2a1,1,0,0,0-1-.6H5.5a1,1,0,0,0-.9.6h-1A3.48,3.48,0,0,0,0,35V53.5A3.5,3.5,0,0,0,3.6,57H32.5a3.48,3.48,0,0,0,3.6-3.4V35A3.64,3.64,0,0,0,32.4,31.6Zm-30,3.8a.43.43,0,0,1-.4.4.43.43,0,0,1-.4-.4A2.35,2.35,0,0,1,4,33.1a.4.4,0,0,1,0,.8A1.56,1.56,0,0,0,2.4,35.4Zm12.2,2.3v8.5a.79.79,0,0,1-.8.8H4.9a.79.79,0,0,1-.8-.8V37.7a.79.79,0,0,1,.8-.8h8.9A.79.79,0,0,1,14.6,37.7Zm6.8,15.7V52h2v1.4Zm2.7,0V52h2v1.4Zm2.8,0V52h2v1.4Zm4.8,0h-2V52h2Zm3.5-8.2a2.71,2.71,0,0,1-2.8,2.7H20.3a2.78,2.78,0,0,1-2.8-2.7V35a2.71,2.71,0,0,1,2.8-2.7H32.5A2.78,2.78,0,0,1,35.3,35V45.2Z"/>
    <path class="cls-1"
          d="M32.4,32.8H20.3a2.35,2.35,0,0,0-2.4,2.3V45.3a2.35,2.35,0,0,0,2.4,2.3H32.5a2.35,2.35,0,0,0,2.4-2.3V35A2.43,2.43,0,0,0,32.4,32.8ZM20.3,46a.79.79,0,0,1-.8-.8V35a.86.86,0,0,1,.8-.8h5.9a6,6,0,0,0-5.9,5.9A6,6,0,0,0,26.2,46Zm.7-5.9a5.3,5.3,0,1,1,5.3,5.1A5.17,5.17,0,0,1,21,40.1Zm12.2,5.1a.86.86,0,0,1-.8.8H26.5a5.9,5.9,0,0,0,0-11.8h5.9a.79.79,0,0,1,.8.8V45.2Z"/>
    <path class="cls-1"
          d="M26.4,35.6a4.6,4.6,0,1,0,4.7,4.6A4.67,4.67,0,0,0,26.4,35.6Zm0,8.3a3.82,3.82,0,0,1-3.9-3.8,3.9,3.9,0,1,1,3.9,3.8Z"/>
    <path class="cls-1"
          d="M26.4,38.7a1.4,1.4,0,1,0,1.5,1.4A1.52,1.52,0,0,0,26.4,38.7Zm0,2.1a.7.7,0,1,1,.7-.7A.75.75,0,0,1,26.4,40.8Z"/>
</svg>