<svg id="Layer_1" data-name="Layer 1" xmlns="http://www.w3.org/2000/svg" viewBox="0 0 38 60">
    <defs>
        <style>.cls-1,.cls-2{fill:#2e2e2e;}.cls-2{stroke:#000;stroke-miterlimit:10;stroke-width:0.5px;}</style>
    </defs>
    <title>Drone</title>
    <path class="cls-1"
          d="M19.6,25.2c.9,0,1.9-.1,2.8-.1h1.8c-.9-.4-1.5-.6-1.5-.6H15.3a2.5,2.5,0,0,0-.8.4A20.91,20.91,0,0,0,19.6,25.2Z"/>
    <path class="cls-1"
          d="M22.7,16.3A1.4,1.4,0,1,0,24,17.7,1.35,1.35,0,0,0,22.7,16.3Zm0,2.2a.82.82,0,0,1-.8-.9.81.81,0,1,1,.8.9Z"/>
    <path class="cls-1"
          d="M19.2,11c-7.8,0-8,9.4-8,9.4H27.4C27.3,20.5,27,11,19.2,11Zm-1.1,6.6a2.1,2.1,0,0,1,0-4.2,2.09,2.09,0,0,1,2,2.1A2.17,2.17,0,0,1,18.1,17.6Zm4.6,1.6a1.39,1.39,0,0,1-1.4-1.5,1.4,1.4,0,1,1,2.8,0A1.45,1.45,0,0,1,22.7,19.2Z"/>
    <rect class="cls-1" x="11.1" y="20.9" width="16.2" height="0.6"/>
    <path class="cls-1" d="M11.3,22l.8.8a1.67,1.67,0,0,0,1.1.4H24.6a2.28,2.28,0,0,0,1.1-.3L27,22Z"/>
    <path class="cls-1"
          d="M23.7,36.1a.93.93,0,0,1,0-1.8l2-.6a7,7,0,0,0-5.1-5.8l-.4,2a.94.94,0,0,1-.8.8c-.4,0-.7-.3-.8-.8L18,27.8a6.85,6.85,0,0,0-5.2,5.6l2,.4a.93.93,0,0,1,0,1.8l-2,.5a6.66,6.66,0,0,0,5.1,5.1l.2-1.6a.94.94,0,0,1,.8-.8h0c.4,0,.7.3.8.8l.5,1.8a6.78,6.78,0,0,0,5.2-5.1Z"/>
    <path class="cls-1" d="M0,49.4a163.2,163.2,0,0,0,37.8,0V47.8A169.65,169.65,0,0,1,0,47.8Z"/>
    <path class="cls-1"
          d="M37.3,46.6l-3.5-1.5a2.39,2.39,0,0,0-.9-.3h-.2c-1.4.8-6.8,1.3-13.3,1.3-5.8,0-10.7-.4-12.7-1l-.9.1a1.08,1.08,0,0,0-.7.3L2,46.7c-.2.1-.2.6.1.6,4.6.5,21.6,1.9,35.2,0A.48.48,0,0,0,37.3,46.6Z"/>
    <circle class="cls-2" cx="19.4" cy="28.1" r="0.5"/>
    <circle class="cls-2" cx="19.1" cy="41.7" r="0.5"/>
    <circle class="cls-2" cx="13.1" cy="34.9" r="0.5"/>
    <circle class="cls-2" cx="25.3" cy="35.1" r="0.5"/>
    <path class="cls-1"
          d="M29.7,28.1A14.46,14.46,0,0,0,25,23.7a22.6,22.6,0,0,1-2.6.1,26.2,26.2,0,0,0-2.8.1,22.61,22.61,0,0,1-5.8-.3c-.1,0-.1,0-.1-.1a18.78,18.78,0,0,0-5.2,4.6V44.3c.9,1.6,16.3,1.6,21.2,0l.1-.1c0-.3-.1-.4-.1-.6s0-.1.1-.3V28.1Zm-10.5,15a8.21,8.21,0,0,1-8-8.5,8.21,8.21,0,0,1,8-8.5,8.21,8.21,0,0,1,8,8.5A8.21,8.21,0,0,1,19.2,43.1Z"/>
    <path class="cls-1" d="M7.7,29.3c-1.7,3.1-2.4,7.4,0,13.2Z"/>
    <path class="cls-1" d="M30.7,42.5c1.7-3.1,2.4-7.4,0-13.2Z"/>
    <path class="cls-1" d="M20.1,51.5h0c-.1.1-.1.4-.2.5h.2s.1,0,0-.1Z"/>
    <path class="cls-1" d="M21,53.9h-.2c-.2,0-.2,0-.2.3h.3c.1,0,.1,0,.1-.1S21.1,53.9,21,53.9Z"/>
    <path class="cls-1" d="M22.2,51.6h.4c.1,0,.1,0,.1-.1s0-.1-.1-.1h-.2c-.2,0-.2,0-.2.2Z"/>
    <path class="cls-1"
          d="M37.3,48.9a219.48,219.48,0,0,1-36.8,0,.7.7,0,0,0-.5.4v2.4a.76.76,0,0,0,.2.4l.6.3a.1.1,0,0,1,.1.1l.6,1.1c.1.1.2.3.4.3h0a.37.37,0,0,1,.4.4v.8a.76.76,0,0,0,.2.4l2,1H9c.5,0,12.6,1.3,20.3-.3h.1l.9.1h.2l.2-.3a.1.1,0,0,0,.1-.1l1.5-.1h.1l1.2.1c.1,0,.2,0,.4-.3l.2-.4c0-.1.1-.1.2-.1l1.2-.4c.1,0,.2-.3.2-.4V54c0-.1,0-.3.1-.3l.5-.5c.1-.1.1-.1.1-.3v-.1a.76.76,0,0,1,.2-.4l.7-.3c.1,0,.2-.3.2-.4V49.2A.45.45,0,0,0,37.3,48.9ZM21.5,50.7h1.4a.74.74,0,0,1,.7.9c0,.3-.1.4-.4.4h1.1a.1.1,0,0,1,.1.1v.6a.1.1,0,0,1-.1.1H23.1a.68.68,0,0,1-.5-.3,2.25,2.25,0,0,0-.5-.5v.6c0,.1,0,.1-.1.1h-.7a.1.1,0,0,1-.1-.1,6.77,6.77,0,0,0,.3-1.9ZM14,53v-.6c0-.1,0-.1.1-.1h1.6a.77.77,0,0,1-.2-.3.9.9,0,0,1,0-1c.1-.1.2-.1.5-.1h2.8c.1,0,.1,0,.1.1v.6a.1.1,0,0,1-.1.1H18c-.1,0-.1,0-.1.1v1.4c0,.1,0,.1-.1.1h-.6a.1.1,0,0,1-.1-.1V51.8c0-.1,0-.1-.1-.1h-.9c.1.1.1.3.2.3a.78.78,0,0,1,.1.8.62.62,0,0,1-.6.4A4.19,4.19,0,0,0,14,53Zm2.4,2.5h-.5a.1.1,0,0,1-.1-.1c-.1-.3-.1-.5-.2-.8v-.1c0,.1-.1.4-.1.5s0,.1-.1.3h-.7c-.1,0-.1,0-.1-.1-.2-.8-.4-1.4-.6-2.1,0-.1,0-.1.1-.1h.7a.1.1,0,0,1,.1.1c0,.1.1.4.1.5h0c0-.1.1-.4.1-.5a.1.1,0,0,1,.1-.1H16a.1.1,0,0,1,.1.1c0,.1.1.4.1.5,0-.1.1-.3.1-.4v-.3h.8c.1,0,0,0,0,.1-.2.6-.4,1.4-.6,2C16.6,55.5,16.6,55.5,16.4,55.5Zm3.1,0h-.8a.1.1,0,0,1-.1-.1c0-.1,0-.1-.1-.3h-.8c0,.1,0,.1-.1.3h-.8c-.1,0-.1,0,0-.1.1-.5.4-1.1.5-1.6,0-.1.1-.4.1-.5a.1.1,0,0,1,.1-.1h1.1a.1.1,0,0,1,.1.1,7.91,7.91,0,0,1,.8,2.3Zm.1-2.7v.1c0,.1,0,.1-.1.1h-.6c-.1,0-.1,0,0-.1.2-.8.4-1.4.6-2.1a.1.1,0,0,1,.1-.1h1.2a.1.1,0,0,1,.1.1c.2.8.5,1.4.6,2.1V53h-.6a.1.1,0,0,1-.1-.1c0-.1,0-.1-.1-.3h-.1a2.4,2.4,0,0,1-1,.2ZM24.3,54h-1v.1a.77.77,0,0,1,.2.3.78.78,0,0,1,.1.8.62.62,0,0,1-.6.4H21.5a.55.55,0,0,1-.5-.3c-.1-.1-.2-.3-.4-.4h0v.5a.1.1,0,0,1-.1.1h-.7c-.1,0-.1,0-.1-.1V53.3a.1.1,0,0,1,.1-.1h1.4a.78.78,0,0,1,.7,1c0,.1-.1.3-.4.4h1.2v-.1a.77.77,0,0,1-.2-.3,1.13,1.13,0,0,1-.1-.8A.62.62,0,0,1,23,53h1.3a.1.1,0,0,1,.1.1,2.22,2.22,0,0,1-.1.9Z"/>
    <path class="cls-1" d="M18.4,54.1c0-.1,0-.1-.1-.3h0c0,.1-.1.4-.1.5h.2v-.2Z"/>
</svg>