<?xml version="1.0" encoding="utf-8"?>
<!-- Generator: Adobe Illustrator 19.0.1, SVG Export Plug-In . SVG Version: 6.00 Build 0)  -->
<svg version="1.1" id="Layer_1" xmlns="http://www.w3.org/2000/svg" xmlns:xlink="http://www.w3.org/1999/xlink" x="0px" y="0px"
	 viewBox="-265 412.9 64 16" style="enable-background:new -265 412.9 64 16;" xml:space="preserve">
<style type="text/css">
	.st0{fill:#E20C0C;}
	.st1{fill:#6C7079;}
</style>
<g transform="translate(0, 0)">
	<polygon class="st0" points="-257,425.5 -264.7,417.8 -263.3,416.3 -257,422.6 -250.7,416.3 -249.3,417.8 	"/>
</g>
<g transform="translate(16, 0)">
	<path class="st1" d="M-250,415.9h-6.6l-2.7-2.7c-0.2-0.2-0.4-0.3-0.7-0.3h-4c-0.6,0-1,0.4-1,1v14c0,0.6,0.4,1,1,1h14
		c0.6,0,1-0.4,1-1v-11C-249,416.3-249.4,415.9-250,415.9z"/>
</g>
<g transform="translate(32, 0)">
	<path class="st1" d="M-249.2,420.3c-0.2-0.2-0.5-0.4-0.8-0.4h-11c-0.4,0-0.8,0.2-0.9,0.6l-3,7c-0.2,0.6,0,1.4,0.9,1.4h11
		c0.4,0,0.8-0.2,0.9-0.6l3-7C-248.9,421-249,420.6-249.2,420.3z"/>
	<path class="st1" d="M-263.8,419.7c0.5-1.1,1.6-1.8,2.8-1.8h9v-2c0-0.6-0.4-1-1-1h-5.6l-1.7-1.7c-0.2-0.2-0.4-0.3-0.7-0.3h-3
		c-0.6,0-1,0.4-1,1v8.7L-263.8,419.7z"/>
</g>
<g transform="translate(48, 0)">
	<path class="st1" d="M-250,412.9h-14c-0.6,0-1,0.4-1,1v14c0,0.6,0.4,1,1,1h14c0.6,0,1-0.4,1-1v-14
		C-249,413.3-249.4,412.9-250,412.9z M-259,416.9c0.6,0,1,0.4,1,1s-0.4,1-1,1s-1-0.4-1-1S-259.6,416.9-259,416.9z M-262,424.9l2-4
		l2,2l3-4l3,6H-262z"/>
</g>
</svg>
