<svg id="Слой_1" data-name="Слой 1" xmlns="http://www.w3.org/2000/svg" viewBox="0 0 20 60">
    <defs>
        <style>.cls-1{fill:none;}</style>
    </defs>
    <title>Монтажная область 1</title>
    <g id="Light">
        <g id="iPhone_X" data-name="iPhone X">
            <path d="M20,25.36V19a3,3,0,0,0-3-3H3a3,3,0,0,0-3,3V54a3,3,0,0,0,3,3H17a3,3,0,0,0,3-3Zm-7.4-8.1a.38.38,0,1,1-.38.38h0A.38.38,0,0,1,12.6,17.26Zm-4.32.37a.17.17,0,0,1,.16-.18h2.77a.17.17,0,0,1,.19.18h0a.17.17,0,0,1-.16.18H8.47a.17.17,0,0,1-.19-.18Zm-7,1.3A1.81,1.81,0,0,1,3,17.13H4.87c.15,0,.09.11.12.36v.64A.93.93,0,0,0,6,19h7.88a.92.92,0,0,0,1-.83v-.64c0-.25.29-.34.44-.36H17a1.81,1.81,0,0,1,1.8,1.8V54A1.81,1.81,0,0,1,17,55.8H3A1.81,1.81,0,0,1,1.23,54Z"/>
            <rect class="cls-1" width="20" height="59.96"/>
        </g>
    </g>
</svg>