<svg id="Слой_1" data-name="Слой 1" xmlns="http://www.w3.org/2000/svg" viewBox="0 0 20 54">
    <defs>
        <style>.cls-1{fill:#333;}.cls-2{fill:none;}</style>
    </defs>
    <title>ipnone_X_new</title>
    <g id="Light">
        <g id="iPhone_X" data-name="iPhone X">
            <path id="iPhone_X-2" data-name="iPhone X" class="cls-1"
                  d="M17,51a3,3,0,0,0,3-3V13a3,3,0,0,0-3-3H3a3,3,0,0,0-3,3V48a3,3,0,0,0,3,3ZM12.6,11.3a.38.38,0,1,1-.38.38A.38.38,0,0,1,12.6,11.3Zm-4.32.37a.17.17,0,0,1,.19-.18h2.74a.17.17,0,0,1,.19.18v0a.17.17,0,0,1-.19.18H8.47a.17.17,0,0,1-.19-.18ZM14,13a.92.92,0,0,0,1-.83c0-.06,0-.78,0-.81,0-.25.29-.34.44-.36H17.2A1.81,1.81,0,0,1,19,12.8V48.2A1.81,1.81,0,0,1,17.2,50H2.8A1.81,1.81,0,0,1,1,48.2V12.8A1.81,1.81,0,0,1,2.8,11H4.56c.15,0,.41.11.44.36,0,0,0,.75,0,.81A.93.93,0,0,0,6,13Z"/>
            <rect class="cls-2" width="20" height="54"/>
        </g>
    </g>
</svg>