<svg id="Слой_1" data-name="Слой 1" xmlns="http://www.w3.org/2000/svg" viewBox="0 0 32 60">
    <defs>
        <style>.cls-1{fill:#2e2e2e;}</style>
    </defs>
    <title>TV</title>
    <g id="Dark">
        <g id="_tv_icon_-_on_dark" data-name="tv icon - on dark">
            <path id="_tv_icon_-_on_light" data-name="tv icon - on light" class="cls-1"
                  d="M31.4,29.3a6.74,6.74,0,0,0-2-2.7,6.22,6.22,0,0,0-2.3-1.2,14.15,14.15,0,0,0-3.9-.4H8.8a14.61,14.61,0,0,0-3.9.4,6.22,6.22,0,0,0-2.3,1.2,6.74,6.74,0,0,0-2,2.7A13,13,0,0,0,0,33.8V48.2a13,13,0,0,0,.6,4.5,6.74,6.74,0,0,0,2,2.7,6.22,6.22,0,0,0,2.3,1.2,14.61,14.61,0,0,0,3.9.4H23.2a14.61,14.61,0,0,0,3.9-.4,6.22,6.22,0,0,0,2.3-1.2,6.74,6.74,0,0,0,2-2.7,13,13,0,0,0,.6-4.5V33.8A13,13,0,0,0,31.4,29.3ZM9.9,36.9a1.91,1.91,0,0,1,1.4-.7,1.65,1.65,0,0,1-.5,1.5,1.91,1.91,0,0,1-1.4.7A2,2,0,0,1,9.9,36.9Zm2.7,7.6c-.4.6-.8,1.2-1.5,1.2s-.8-.4-1.6-.4-1,.4-1.6.4-1.1-.6-1.5-1.2c-.8-1.2-1.4-3.3-.6-4.8a2.4,2.4,0,0,1,2-1.2c.6,0,1.2.4,1.6.4s1-.5,1.8-.4a2,2,0,0,1,1.7,1,2,2,0,0,0-1,1.8,2,2,0,0,0,1.3,1.9C13.3,43.2,13.1,43.8,12.6,44.5ZM19,39.7H17.4v3c0,.8.2,1.3.9,1.3a1.48,1.48,0,0,0,.7-.1v1.3a3.73,3.73,0,0,1-1.2.2,1.89,1.89,0,0,1-1.5-.6,2.55,2.55,0,0,1-.5-1.9V39.7h-1V38.4h1V36.9l1.7-.4v1.9H19Zm4.9,5.5H22.2l-2.5-6.8h1.9l1.1,3.5c.2.6.3,1.1.5,1.7h0a10.93,10.93,0,0,1,.5-1.7l1.1-3.5h1.8Z"/>
        </g>
    </g>
</svg>