<svg id="watch_series_2" xmlns="http://www.w3.org/2000/svg" viewBox="0 0 24 60"><defs><style>.cls-1{fill:#424242;}</style></defs><title>Монтажная область 1</title><path class="cls-1" d="M23,29V27.25a4.37,4.37,0,0,0-1.53-3.37,4,4,0,0,1-.52-.61c-.21-.27-.45-.53-.68-.8a5.54,5.54,0,0,1-1.38-3.27,15.65,15.65,0,0,1,0-1.64,4.43,4.43,0,0,0,0-1,1.52,1.52,0,0,0-1.21-1.11c-.19-.06-1-.1-1.25-.15A1.52,1.52,0,0,1,13.49,15c-.82,0-1.62,0-2.27,0L9.44,15a1.51,1.51,0,0,1-2.88.19,7.57,7.57,0,0,0-1.16.21A1.56,1.56,0,0,0,4.2,16.57c-.12.54.15,3.17-.83,4.76-.24.39-1,1.52-1.46,2.17a7.52,7.52,0,0,1-.58.68A4.12,4.12,0,0,0,0,27.27V44.59a4.06,4.06,0,0,0,.88,3c.11.11.33.39.37.42L2.45,49.3a6.83,6.83,0,0,1,.89,1.32c1,1.59.71,4.24.83,4.78A1.52,1.52,0,0,0,5.38,56.5c.18.05,1,.17,1.24.21a1.51,1.51,0,0,1,2.8.24c.86,0,1.71.05,2.39.05l1.7,0a1.51,1.51,0,0,1,2.84-.18,8.1,8.1,0,0,0,1.27-.22,1.56,1.56,0,0,0,1.21-1.14c.12-.54-.15-3.17.83-4.76C20,50.11,21.45,48,21.45,48s.24-.36.41-.56A4.42,4.42,0,0,0,23,44.59V34h1V29ZM15,17.68a1.44,1.44,0,1,1-1.5,1.44A1.47,1.47,0,0,1,15,17.68Zm-3.51-2.12A1.44,1.44,0,1,1,9.94,17,1.47,1.47,0,0,1,11.44,15.56Zm0,4.32a1.44,1.44,0,1,1-1.5,1.44A1.47,1.47,0,0,1,11.44,19.89ZM8,17.68a1.44,1.44,0,1,1-1.5,1.44A1.47,1.47,0,0,1,8,17.68Zm0,36.7a1.44,1.44,0,1,1,1.5-1.44A1.47,1.47,0,0,1,8,54.38Zm3.51,2.12A1.44,1.44,0,1,1,13,55.06,1.47,1.47,0,0,1,11.48,56.5Zm0-4.32A1.44,1.44,0,1,1,13,50.74,1.47,1.47,0,0,1,11.48,52.18ZM15,54.38a1.44,1.44,0,1,1,1.5-1.44A1.47,1.47,0,0,1,15,54.38Zm7-9.8A3.3,3.3,0,0,1,18.82,48H4.25A3.39,3.39,0,0,1,1,44.59V27.25A3.27,3.27,0,0,1,4.25,24H18.82a3.18,3.18,0,0,1,3.09,3.27Z"/></svg>