<svg id="Слой_1" data-name="Слой 1" xmlns="http://www.w3.org/2000/svg" viewBox="0 0 68 60">
    <defs>
        <style>.cls-1{fill:#424242;}</style>
    </defs>
    <title>watch_all</title>
    <g id="Light">
        <path class="cls-1"
              d="M3.81,31.91a2.06,2.06,0,0,1,.12-.21L4,31.48a14,14,0,0,1,1-1.44c.35-.43.69-.83,1-1.18s.67-.65,1-.91l.45-.36.41-.31L8.28,27c.29-.19.58-.37.87-.55a.57.57,0,0,1,.76.15.49.49,0,0,1-.16.71l-.14.09-.17.11-.11.07-.12.08-.28.18-.33.24-.37.28-.41.34c-.28.24-.59.53-.9.85A11.84,11.84,0,0,0,6,30.67,12.67,12.67,0,0,0,5.06,32L5,32.2l-.09.17c-.06.13-.12.26-.18.4s-.21.54-.31.86c-.05.16-.1.31-.18.5a2.61,2.61,0,0,1-.47.7l0-.11c0-.17-.09-.34-.13-.5a2.4,2.4,0,0,1,.08-2Z"/>
        <path class="cls-1"
              d="M64.14,31.79a2.06,2.06,0,0,0-.12-.21l-.12-.22a14,14,0,0,0-1-1.44c-.35-.43-.7-.83-1-1.18s-.67-.65-1-.91l-.45-.36L60,27.16l-.36-.25c-.29-.19-.58-.37-.87-.55a.58.58,0,0,0-.76.15.49.49,0,0,0,.16.71l.14.09.17.11.11.07.12.08.28.18.33.24.37.28.41.34c.28.24.59.53.9.85a11.85,11.85,0,0,1,.95,1.1,12.68,12.68,0,0,1,.93,1.34l.1.19.09.17c.06.13.12.26.18.4s.21.54.31.86c.05.16.1.31.18.5a2.63,2.63,0,0,0,.47.7l0-.11c0-.17.09-.34.13-.5a2.4,2.4,0,0,0-.08-2Z"/>
        <path class="cls-1"
              d="M67.46,36.25a5.31,5.31,0,0,0-.92-1.44l0,.16a3.82,3.82,0,0,0,.07,1.83c.05.25.11.51.15.81a16.75,16.75,0,0,1-1.14,8.63,1.13,1.13,0,0,1-.46.5A16.82,16.82,0,0,1,63,50.15a14.53,14.53,0,0,1-3.74,3.41,13.62,13.62,0,0,1-4.63,1.82,15.13,15.13,0,0,1-2.41.28H51.08c-.37,0-.76,0-1.14-.08a14.39,14.39,0,0,1-2.15-.39c-.34-.09-.67-.19-1-.31s-.62-.23-.92-.36l-.11,0,0,0h0l-.23-.11-.22-.11-.11-.05-.1-.05-.39-.21-.38-.22a12.37,12.37,0,0,1-1.36-.93c-.21-.15-.39-.32-.58-.47s-.35-.31-.5-.48a9.35,9.35,0,0,1-.8-.91c-.12-.14-.22-.29-.33-.44s-.17-.26-.26-.4a4.16,4.16,0,0,1-.22-.4L40,49.27l-.1-.18a2.38,2.38,0,0,0-.22-.34,1,1,0,0,0-.9-.36,1,1,0,0,0-.67.35.88.88,0,0,0-.19.54.83.83,0,0,0,0,.09,1.19,1.19,0,0,0,.22.52l.16.22.32.43.1.13c.22.3.45.59.7.87l.28.31c.14.15.28.31.45.46l.24.25.26.25.28.26.3.26c.21.17.42.35.65.52a13.85,13.85,0,0,0,1.53,1l.43.24.46.24.12.06.11.05.22.11.23.11.07,0,.06,0,.12.05a15.56,15.56,0,0,0,4.52,1.13c.41,0,.83.07,1.27.08h.63l.65,0A17.47,17.47,0,0,0,55,56.66a15.1,15.1,0,0,0,5.1-2,15.84,15.84,0,0,0,4-3.74,17.55,17.55,0,0,0,2.59-4.61c.17-.48.37-1,.5-1.46.06-.21.11-.43.16-.65C68,41.66,68.36,38.67,67.46,36.25Z"/>
        <path class="cls-1"
              d="M64.12,45.6l0,.12a.52.52,0,0,0,.34.66.53.53,0,0,0,.69-.29,16.27,16.27,0,0,0,1.11-8.4c0-.29-.1-.54-.15-.78a4.19,4.19,0,0,1-.07-2c0-.14.07-.28.11-.43a3.71,3.71,0,0,0-.18-3,16.76,16.76,0,0,0-7-6.92c-.28-.14-.55-.28-.84-.41a14.41,14.41,0,0,0-2.44-.8,19,19,0,0,0-5.92-.23,15.59,15.59,0,0,0-4.52,1.2l-.12.05-.06,0-.07,0-.23.11-.22.11-.11.05-.12.06-.46.24-.43.24a13.89,13.89,0,0,0-1.53,1c-.24.17-.45.35-.65.52L41,27l-.28.26-.26.25-.24.25c-.17.16-.31.32-.45.46l-.28.31c-.25.28-.48.57-.7.87l-.1.13-.32.44-.16.22a1.19,1.19,0,0,0-.22.52.83.83,0,0,0,0,.09.88.88,0,0,0,.19.54,1,1,0,0,0,.67.35,1,1,0,0,0,.9-.36A2.38,2.38,0,0,0,39.9,31l.1-.18.21-.38a4.05,4.05,0,0,1,.22-.4c.08-.14.16-.27.26-.4s.21-.3.33-.44a9.37,9.37,0,0,1,.8-.91c.15-.16.33-.31.5-.48s.37-.32.58-.47a12.5,12.5,0,0,1,1.36-.93l.38-.22L45,26l.1-.05.11-.05.22-.11.23-.11h0l0,0,.11,0c.29-.13.6-.25.92-.36s.65-.22,1-.31a14.36,14.36,0,0,1,2.15-.46,16.73,16.73,0,0,1,5.64.2,11.33,11.33,0,0,1,2,.62c.25.1.51.23.75.35A15.44,15.44,0,0,1,64.77,32a2.63,2.63,0,0,1,.1,2.17c0,.16-.09.32-.12.48A4.4,4.4,0,0,0,64.9,37c0,.23.15.64.18.89A16.52,16.52,0,0,1,64.12,45.6Z"/>
        <path class="cls-1"
              d="M41.12,30.88c-.08.15-.15.29-.23.41l-.07.14a3.56,3.56,0,0,1-.31.49,2.08,2.08,0,0,1-.75.58,2.11,2.11,0,0,1-.86.18l-.25,0A2,2,0,0,1,37.32,32a1.79,1.79,0,0,1-.41-1.12v-.18a1.85,1.85,0,0,1,.24-.71,2.81,2.81,0,0,0-1.64,2.49V47.55A2.81,2.81,0,0,0,37.08,50a1.75,1.75,0,0,1-.15-.53v-.19a1.77,1.77,0,0,1,.39-1.1,2.06,2.06,0,0,1,1.37-.74h.24a2.1,2.1,0,0,1,.85.18,2,2,0,0,1,.73.55,3.32,3.32,0,0,1,.33.5l.09.17.18.33a2.68,2.68,0,0,0,.55-1.61V32.44A2.7,2.7,0,0,0,41.12,30.88Zm-.51,13.84a2,2,0,0,1-4.06,0V40.94a2,2,0,0,1,4.06,0Zm-2-6.61a1.89,1.89,0,1,1,2-1.89A2,2,0,0,1,38.58,38.11Z"/>
        <ellipse class="cls-1" cx="38.58" cy="36.22" rx="1.02" ry="0.94"/>
        <path class="cls-1"
              d="M38.58,45.67h0a1,1,0,0,1-1-.94V40.94a1,1,0,0,1,1-.94h0a1,1,0,0,1,1,.94v3.78A1,1,0,0,1,38.58,45.67Z"/>
        <path class="cls-1"
              d="M3.85,45.6l0,.12a.52.52,0,0,1-.34.66.52.52,0,0,1-.69-.29,16.31,16.31,0,0,1-1.11-8.4c0-.29.1-.54.15-.78a4.2,4.2,0,0,0,.07-2c0-.14-.07-.28-.11-.43a3.72,3.72,0,0,1,.18-3A16.73,16.73,0,0,1,9,24.57c.27-.14.55-.28.83-.41a14.32,14.32,0,0,1,2.43-.8,18.83,18.83,0,0,1,5.9-.23,15.48,15.48,0,0,1,4.5,1.2l.12.05.06,0,.07,0,.23.11.22.11.11.05.12.06L24,25l.43.24a13.9,13.9,0,0,1,1.53,1c.24.17.44.35.65.52l.29.26.28.26.26.25.24.25c.16.16.31.32.45.46l.27.31c.25.28.48.57.7.87l.1.13.32.44.16.22a1.19,1.19,0,0,1,.21.52.83.83,0,0,1,0,.09.88.88,0,0,1-.19.54,1,1,0,0,1-.66.35,1,1,0,0,1-.9-.36A2.38,2.38,0,0,1,28,31l-.1-.18c-.07-.13-.14-.25-.21-.38a4.05,4.05,0,0,0-.22-.4c-.08-.14-.16-.27-.26-.4s-.21-.3-.33-.44a9.32,9.32,0,0,0-.79-.91c-.15-.16-.32-.31-.5-.48s-.37-.32-.57-.47a12.51,12.51,0,0,0-1.36-.93l-.38-.22L22.87,26l-.1-.05-.11-.05-.22-.11-.23-.11h0l0,0-.11,0c-.29-.13-.6-.25-.92-.36s-.64-.22-1-.31A14.26,14.26,0,0,0,18,24.45a16.61,16.61,0,0,0-5.62.2,11.26,11.26,0,0,0-2,.62c-.25.1-.51.23-.75.35A15.41,15.41,0,0,0,3.19,32a2.63,2.63,0,0,0-.1,2.17c0,.16.09.32.12.48A4.41,4.41,0,0,1,3.07,37c0,.23-.15.64-.18.89A16.59,16.59,0,0,0,3.85,45.6Z"/>
        <path class="cls-1"
              d="M30.63,29.83a2,2,0,0,1,.31.81v.19a1.77,1.77,0,0,1-.39,1.1,2,2,0,0,1-1.37.74h-.24a2.1,2.1,0,0,1-.85-.18,2.06,2.06,0,0,1-.72-.54,3.5,3.5,0,0,1-.33-.51L27,31.28,26.82,31a2.63,2.63,0,0,0-.41,1.41V47.57A2.63,2.63,0,0,0,26.85,49l.12-.2,0-.09a3.64,3.64,0,0,1,.33-.54,2.05,2.05,0,0,1,.75-.58,2.09,2.09,0,0,1,.85-.18l.25,0a2,2,0,0,1,1.34.71,1.79,1.79,0,0,1,.41,1.12v.18a1.83,1.83,0,0,1-.21.65,2.83,2.83,0,0,0,1.76-2.56V32.44A2.83,2.83,0,0,0,30.63,29.83Z"/>
        <path class="cls-1"
              d="M29.75,48.74a1,1,0,0,0-.66-.35,1,1,0,0,0-.9.36,2.43,2.43,0,0,0-.21.34l-.1.18c-.07.13-.14.25-.21.38a4.15,4.15,0,0,1-.22.4c-.08.14-.16.27-.26.4s-.21.3-.33.44a9.32,9.32,0,0,1-.79.91c-.15.16-.32.31-.5.48s-.37.32-.57.47a12.51,12.51,0,0,1-1.36.93l-.38.22-.39.21-.1.05-.11.05-.22.11-.23.11h0l0,0-.11,0c-.29.13-.6.25-.92.36s-.64.22-1,.31A14.29,14.29,0,0,1,18,55.6c-.37,0-.76.06-1.13.08H15.65a15.24,15.24,0,0,1-2.4-.28,13.52,13.52,0,0,1-4.62-1.82,14.49,14.49,0,0,1-3.72-3.41,16.75,16.75,0,0,1-2.07-3.4,1.14,1.14,0,0,1-.46-.5,16.79,16.79,0,0,1-1.13-8.63c0-.3.1-.56.15-.81A3.82,3.82,0,0,0,1.48,35l0-.16a5.17,5.17,0,0,0-.92,1.44C-.34,38.63,0,41.7.6,44.17c.05.22.11.44.16.65.13.48.33,1,.5,1.46a17.59,17.59,0,0,0,2.58,4.6,15.79,15.79,0,0,0,4,3.74,15,15,0,0,0,5.09,2,17.34,17.34,0,0,0,2.63.32l.65,0h.63c.44,0,.85,0,1.26-.08a15.46,15.46,0,0,0,4.5-1.13l.12-.05.06,0,.07,0,.23-.11.22-.11.11-.05.12-.06.46-.24.43-.24a13.9,13.9,0,0,0,1.53-1c.24-.17.44-.35.65-.52l.29-.26.28-.26.26-.25.24-.25c.16-.16.31-.32.45-.46l.27-.31c.25-.28.48-.57.7-.87l.1-.13.32-.43.16-.22a1.19,1.19,0,0,0,.21-.52.83.83,0,0,0,0-.09A.88.88,0,0,0,29.75,48.74Z"/>
    </g>
</svg>