<svg id="Слой_1" data-name="Слой 1" xmlns="http://www.w3.org/2000/svg" viewBox="0 0 20 60">
    <defs>
        <style>.cls-1{fill:#424242;}.cls-2{fill:none;}</style>
    </defs>
    <title>Iphone_x</title>
    <g id="Light">
        <g id="iPhone_X" data-name="iPhone X">
            <path d="M20,25.36V18.95a3,3,0,0,0-3-3H3a3,3,0,0,0-3,3V54a3,3,0,0,0,3,3H9s0,0,0,0a0,0,0,0,1,0,0h2.12a0,0,0,0,1,0,0s0,0,0,0H17a3,3,0,0,0,3-3V25.36Zm-7.4-8.1a.38.38,0,1,1-.38.38A.38.38,0,0,1,12.6,17.26Zm-4.32.37a.17.17,0,0,1,.19-.18h2.74a.17.17,0,0,1,.19.18v0a.17.17,0,0,1-.19.18H8.47a.17.17,0,0,1-.19-.18Zm-7,1.3A1.81,1.81,0,0,1,3,17.13H4.87c.15,0,.09.11.12.36,0,0,0,.59,0,.64a.93.93,0,0,0,1,.83h7.88a.92.92,0,0,0,1-.83c0-.06,0-.62,0-.64,0-.25.29-.34.44-.36H17a1.81,1.81,0,0,1,1.8,1.8V54A1.81,1.81,0,0,1,17,55.8H3A1.81,1.81,0,0,1,1.23,54Z"/>
            <rect class="cls-2" y="5.96" width="20" height="54"/>
        </g>
    </g>
</svg>