<svg id="Слой_1" data-name="Слой 1" xmlns="http://www.w3.org/2000/svg" viewBox="0 0 50 60"><defs><style>.cls-1{fill:#424242;}</style></defs><title>Iphone_All</title><g id="Light"><g id="iPhone"><path id="iPhone_Compare" data-name="iPhone Compare" class="cls-1" d="M46.9,22H37.84v4h11V53h-11s0,1,0,1c0,2.53-1.7,3-1.7,3H46.9a2.81,2.81,0,0,0,2.94-2.93V24.93A2.8,2.8,0,0,0,46.9,22Zm-7.06,2h3v.5h-3Zm1.5,32a1,1,0,1,1,1-1A1,1,0,0,1,41.34,56ZM21.1,57H34a2.88,2.88,0,0,0,2.87-2.86V21.88A2.89,2.89,0,0,0,34,19H22.84v4h13V53h-13l0,1.12A3.77,3.77,0,0,1,21.1,57Zm7.74-35.5h-3V21h3Zm-3,33.5a1.5,1.5,0,1,1,1.5,1.5A1.5,1.5,0,0,1,25.84,55Zm-26-39.65V53.63A3.37,3.37,0,0,0,3.19,57H18.51a3.35,3.35,0,0,0,3.33-3.37V15.35A3.34,3.34,0,0,0,18.51,12H3.19A3.36,3.36,0,0,0-.16,15.35ZM12.34,15h-3v-.5h3ZM9.09,54.5a1.75,1.75,0,1,1,1.75,1.75A1.75,1.75,0,0,1,9.09,54.5ZM.84,17h20V52H.84Zm9,37.5a1,1,0,1,1,1,1A1,1,0,0,1,9.84,54.5Zm16.62.5a.88.88,0,1,1,.88.88A.88.88,0,0,1,26.46,55Z"/></g></g></svg>