<svg id="Слой_1" data-name="Слой 1" xmlns="http://www.w3.org/2000/svg" viewBox="0 0 48 60">
    <defs>
        <style>.cls-1{fill:#424242;}</style>
    </defs>
    <title>imac</title>
    <g id="Dark">
        <g id="Mac">
            <path id="iMac" class="cls-1"
                  d="M46.47,17H1.53A1.77,1.77,0,0,0,0,18.53L0,48.47A1.77,1.77,0,0,0,1.57,50H21l-.89,4.12a2.81,2.81,0,0,1-2.93,2.19h-.07A.34.34,0,0,0,17,57H31a.34.34,0,0,0,.24-.32.35.35,0,0,0-.35-.35h-.07a2.81,2.81,0,0,1-2.93-2.19L27,50H46.47A1.77,1.77,0,0,0,48,48.47V18.53A1.77,1.77,0,0,0,46.47,17ZM24.95,47.83l-.09.17-.1.14-.08.08-.11.07a.22.22,0,0,1-.11,0l-.09,0-.11,0-.11,0H24l-.11,0-.12,0-.11,0h-.17l-.09-.05-.1-.1L23.24,48a1.55,1.55,0,0,1-.11-.19,1.69,1.69,0,0,1-.08-.22,1.51,1.51,0,0,1-.05-.22,1.28,1.28,0,0,1,0-.22.94.94,0,0,1,0-.31.77.77,0,0,1,.13-.24.61.61,0,0,1,.2-.16.55.55,0,0,1,.25-.06.62.62,0,0,1,.23.06.56.56,0,0,0,.18.06l.06,0,.14,0,.14,0h.11a.58.58,0,0,1,.28.07.54.54,0,0,1,.21.19.55.55,0,0,0-.21.21.59.59,0,0,0-.06.28.56.56,0,0,0,.09.31.55.55,0,0,0,.25.21A1.35,1.35,0,0,1,24.95,47.83Zm-1-1.52a.46.46,0,0,1,0-.19.64.64,0,0,1,.11-.17.58.58,0,0,1,.16-.12.47.47,0,0,1,.19-.05v.05a.51.51,0,0,1,0,.19.61.61,0,0,1-.11.17.48.48,0,0,1-.15.12.35.35,0,0,1-.17,0s0,0,0,0A.3.3,0,0,1,24,46.31ZM46,44H2V19H46Z"/>
        </g>
    </g>
</svg>