<svg id="Слой_1" data-name="Слой 1" xmlns="http://www.w3.org/2000/svg" viewBox="0 0 70 60">
    <defs>
        <style>.cls-1{fill:#424242;}</style>
    </defs>
    <title>mac_all</title>
    <g id="Dark">
        <path id="Mac_Compare" data-name="Mac Compare" class="cls-1"
              d="M42,55V34.5A1.35,1.35,0,0,0,40.5,33H5.5A1.33,1.33,0,0,0,4,34.5V55H0c.05.09.13.32.21.32a11.46,11.46,0,0,0,4.64,1.42C7.42,56.92,10,57,10,57H36s2.36-.08,4.93-.25a11.46,11.46,0,0,0,4.64-1.42A1.18,1.18,0,0,0,46,55H42ZM6,35H40V55H6ZM53,57h0l0,0a.33.33,0,0,0,.24-.32.34.34,0,0,0-.35-.34h-.07a2.81,2.81,0,0,1-2.93-2.19L49,50H68.47A1.76,1.76,0,0,0,70,48.47V18.53A1.76,1.76,0,0,0,68.47,17H23.53A1.76,1.76,0,0,0,22,18.53L22,32h2V19H68V44H43V54h4v1c0,1.54-3,2-3,2Zm-6-9.17-.09.17-.1.14a.29.29,0,0,1-.08.08l-.11.07a.2.2,0,0,1-.11,0l-.09,0-.11,0-.11,0H46a.23.23,0,0,0-.11,0l-.12,0-.11,0-.08,0-.09,0-.09,0-.1-.1s-.07-.09-.12-.15l-.11-.19a1.43,1.43,0,0,1-.08-.22,1.74,1.74,0,0,1,0-.22,1.8,1.8,0,0,1,0-.22.94.94,0,0,1,0-.3.92.92,0,0,1,.13-.24.62.62,0,0,1,.2-.16.54.54,0,0,1,.25-.06.56.56,0,0,1,.23.06.59.59,0,0,0,.18.06l.06,0,.14,0,.14,0h.11a.59.59,0,0,1,.49.26.7.7,0,0,0-.21.21.61.61,0,0,0-.06.28.59.59,0,0,0,.09.31.58.58,0,0,0,.25.21A.53.53,0,0,0,47,47.83Zm-1-1.52a.46.46,0,0,1,0-.19.62.62,0,0,1,.11-.17.48.48,0,0,1,.16-.12.45.45,0,0,1,.19,0v.06a.51.51,0,0,1,0,.2.62.62,0,0,1-.11.17.44.44,0,0,1-.15.12.37.37,0,0,1-.17,0h0A.18.18,0,0,0,46,46.31Z"/>
    </g>
</svg>