<svg id="Light" xmlns="http://www.w3.org/2000/svg" viewBox="0 0 48 60">
    <defs>
        <style>.cls-1{fill:#424242;}</style>
    </defs>
    <title>ipad_all</title>
    <path id="iPad_Compare" data-name="iPad Compare" class="cls-1"
          d="M21.18,26H1.3A1.31,1.31,0,0,0,0,27.26V55.8A1.28,1.28,0,0,0,1.3,57H21.18a1.32,1.32,0,0,0,1.29-1.26V27.26A1.31,1.31,0,0,0,21.18,26Zm-10,1.25a.43.43,0,1,1-.44.43.43.43,0,0,1,.44-.43Zm.06,29.25a1,1,0,1,1,1-1A1,1,0,0,1,11.23,56.5ZM20.43,54H2V29H20.43Zm14-37h-26a1.25,1.25,0,0,0-1.28,1.22s0,0,0,0V25h2V21H33.7V53H23.49v2.74A1.32,1.32,0,0,1,22.2,57H34.46a1.26,1.26,0,0,0,1.28-1.22s0,0,0,0V18.25A1.25,1.25,0,0,0,34.49,17Zm-13,2.5A.5.5,0,1,1,22,19,.51.51,0,0,1,21.45,19.5ZM46.47,9H14.81a1.5,1.5,0,0,0-1.53,1.47s0,0,0,0V16h2V13H46V53H36.77v2.75A1.25,1.25,0,0,1,35.51,57h11A1.5,1.5,0,0,0,48,55.53s0,0,0,0v-45A1.5,1.5,0,0,0,46.5,9ZM30.64,11.75A.75.75,0,1,1,31.4,11,.76.76,0,0,1,30.64,11.75Z"/>
</svg>